<svg width="91" height="93" viewBox="0 0 91 93" fill="none" xmlns="http://www.w3.org/2000/svg">
<g filter="url(#filter0_ddd_4006_6)">
<rect x="24.7734" y="8.90963" width="42.1416" height="43.4414" rx="3" fill="#DDF9E4"/>
</g>
<path d="M47.4638 22.4887H37.8935C36.7889 22.4887 35.8935 23.3842 35.8935 24.4887V32.2497C35.8935 33.3543 36.7889 34.2497 37.8935 34.2497H47.4638C48.5684 34.2497 49.4638 33.3543 49.4638 32.2497V24.4887C49.4638 23.3842 48.5684 22.4887 47.4638 22.4887Z" stroke="#22A447" stroke-width="2" stroke-linecap="round" stroke-linejoin="round"/>
<path d="M49.4628 29.0131C49.4628 27.9086 50.3583 27.0131 51.4628 27.0131H52.2532C52.7836 27.0131 53.2923 27.2239 53.6674 27.5989L55.2099 29.1414C55.5849 29.5165 55.7957 30.0252 55.7957 30.5556V32.2507C55.7957 33.3552 54.9002 34.2507 53.7957 34.2507H51.4628C50.3583 34.2507 49.4628 33.3552 49.4628 32.2507V29.0131Z" stroke="#22A447" stroke-width="2" stroke-linecap="round" stroke-linejoin="round"/>
<path d="M39.9648 38.7719C41.2139 38.7719 42.2265 37.7593 42.2265 36.5102C42.2265 35.2611 41.2139 34.2485 39.9648 34.2485C38.7157 34.2485 37.7031 35.2611 37.7031 36.5102C37.7031 37.7593 38.7157 38.7719 39.9648 38.7719Z" stroke="#22A447" stroke-width="2" stroke-linecap="round" stroke-linejoin="round"/>
<path d="M51.7246 38.7719C52.9737 38.7719 53.9863 37.7593 53.9863 36.5102C53.9863 35.2611 52.9737 34.2485 51.7246 34.2485C50.4754 34.2485 49.4628 35.2611 49.4628 36.5102C49.4628 37.7593 50.4754 38.7719 51.7246 38.7719Z" stroke="#22A447" stroke-width="2" stroke-linecap="round" stroke-linejoin="round"/>
<defs>
<filter id="filter0_ddd_4006_6" x="0.773376" y="0.90963" width="90.1416" height="91.4414" filterUnits="userSpaceOnUse" color-interpolation-filters="sRGB">
<feFlood flood-opacity="0" result="BackgroundImageFix"/>
<feColorMatrix in="SourceAlpha" type="matrix" values="0 0 0 0 0 0 0 0 0 0 0 0 0 0 0 0 0 0 127 0" result="hardAlpha"/>
<feOffset/>
<feGaussianBlur stdDeviation="0.5"/>
<feColorMatrix type="matrix" values="0 0 0 0 0 0 0 0 0 0 0 0 0 0 0 0 0 0 0.04 0"/>
<feBlend mode="normal" in2="BackgroundImageFix" result="effect1_dropShadow_4006_6"/>
<feColorMatrix in="SourceAlpha" type="matrix" values="0 0 0 0 0 0 0 0 0 0 0 0 0 0 0 0 0 0 127 0" result="hardAlpha"/>
<feOffset dy="2"/>
<feGaussianBlur stdDeviation="3"/>
<feColorMatrix type="matrix" values="0 0 0 0 0 0 0 0 0 0 0 0 0 0 0 0 0 0 0.04 0"/>
<feBlend mode="normal" in2="effect1_dropShadow_4006_6" result="effect2_dropShadow_4006_6"/>
<feColorMatrix in="SourceAlpha" type="matrix" values="0 0 0 0 0 0 0 0 0 0 0 0 0 0 0 0 0 0 127 0" result="hardAlpha"/>
<feOffset dy="16"/>
<feGaussianBlur stdDeviation="12"/>
<feColorMatrix type="matrix" values="0 0 0 0 0 0 0 0 0 0 0 0 0 0 0 0 0 0 0.06 0"/>
<feBlend mode="normal" in2="effect2_dropShadow_4006_6" result="effect3_dropShadow_4006_6"/>
<feBlend mode="normal" in="SourceGraphic" in2="effect3_dropShadow_4006_6" result="shape"/>
</filter>
</defs>
</svg>
