<svg width="14" height="11" viewBox="0 0 14 11" fill="none" xmlns="http://www.w3.org/2000/svg">
<path d="M12.2501 9.50016C12.9405 9.50016 13.5002 8.94048 13.5002 8.25008C13.5002 7.55968 12.9405 7 12.2501 7C11.5597 7 11 7.55968 11 8.25008C11 8.94048 11.5597 9.50016 12.2501 9.50016Z" stroke="black" stroke-width="1.00006" stroke-linecap="round" stroke-linejoin="round"/>
<path d="M3.0992 10.0778C3.7896 10.0778 4.34928 9.51808 4.34928 8.82768C4.34928 8.13729 3.7896 7.57761 3.0992 7.57761C2.4088 7.57761 1.84912 8.13729 1.84912 8.82768C1.84912 9.51808 2.4088 10.0778 3.0992 10.0778Z" stroke="black" stroke-width="1.00006" stroke-linecap="round" stroke-linejoin="round"/>
<path d="M8.34959 1.07761H0.849121V7.57801H8.34959V1.07761Z" stroke="black" stroke-width="1.00006" stroke-linecap="round" stroke-linejoin="round"/>
<path d="M8.34961 3.57809H10.3497L11.8498 5.07819V7.57834H8.34961V3.57809Z" stroke="black" stroke-width="1.00006" stroke-linecap="round" stroke-linejoin="round"/>
</svg>
