<svg width="28" height="28" viewBox="0 0 28 28" fill="none" xmlns="http://www.w3.org/2000/svg">
<path d="M25.122 20.1076L20.2029 15.1801V11.5267C20.2035 11.4156 20.1822 11.3056 20.1403 11.2028C20.0983 11.1 20.0364 11.0065 19.9582 10.9276L11.5207 2.49012C11.4423 2.41104 11.3489 2.34827 11.2461 2.30543C11.1433 2.26259 11.033 2.24054 10.9216 2.24054C10.8103 2.24054 10.7 2.26259 10.5972 2.30543C10.4943 2.34827 10.401 2.41104 10.3226 2.49012L2.72883 10.0839C2.64974 10.1623 2.58697 10.2556 2.54414 10.3584C2.5013 10.4613 2.47925 10.5715 2.47925 10.6829C2.47925 10.7943 2.5013 10.9046 2.54414 11.0074C2.58697 11.1102 2.64974 11.2036 2.72883 11.282L11.1663 19.7195C11.2452 19.7977 11.3387 19.8596 11.4415 19.9016C11.5443 19.9435 11.6543 19.9648 11.7654 19.9642H15.4273L20.3463 24.8917C20.9796 25.525 21.8385 25.8807 22.7341 25.8807C23.6297 25.8807 24.4887 25.525 25.122 24.8917C25.7552 24.2584 26.111 23.3995 26.111 22.5039C26.111 21.6083 25.7552 20.7493 25.122 20.1161V20.1076ZM5.85914 9.34137L7.79133 11.282L8.98945 10.0839L7.04883 8.15168L8.39039 6.81012L12.0101 10.4382L13.2082 9.24012L9.58008 5.62043L10.9216 4.27887L16.482 9.83918L10.0779 16.2432L4.51758 10.6829L5.85914 9.34137ZM23.9238 23.6851C23.6077 23.9994 23.18 24.1758 22.7341 24.1758C22.2883 24.1758 21.8606 23.9994 21.5445 23.6851L16.3723 18.5214C16.1925 18.3977 15.9881 18.3143 15.7732 18.2767H12.1113L11.2676 17.4329L17.6716 11.0289L18.5154 11.8726V15.5345C18.5163 15.7558 18.6042 15.968 18.7601 16.1251L23.9238 21.3057C24.2381 21.6219 24.4145 22.0496 24.4145 22.4954C24.4145 22.9412 24.2381 23.3689 23.9238 23.6851Z" fill="url(#paint0_linear_1_274)"/>
<path d="M23.9238 23.6851C23.6077 23.9994 23.18 24.1758 22.7341 24.1758C22.2883 24.1758 21.8606 23.9994 21.5445 23.6851L16.3723 18.5214C16.1925 18.3977 15.9881 18.3143 15.7732 18.2767H12.1113L11.2676 17.4329L17.6716 11.0289L18.5154 11.8726V15.5345C18.5163 15.7558 18.6042 15.968 18.7601 16.1251L23.9238 21.3057C24.2381 21.6219 24.4145 22.0496 24.4145 22.4954C24.4145 22.9412 24.2381 23.3689 23.9238 23.6851Z" fill="url(#paint1_linear_1_274)"/>
<defs>
<linearGradient id="paint0_linear_1_274" x1="14.2951" y1="2.24054" x2="14.2951" y2="25.8807" gradientUnits="userSpaceOnUse">
<stop stop-color="#FFA764"/>
<stop offset="1" stop-color="#F17F29"/>
</linearGradient>
<linearGradient id="paint1_linear_1_274" x1="14.2951" y1="2.24054" x2="14.2951" y2="25.8807" gradientUnits="userSpaceOnUse">
<stop stop-color="#FFA764"/>
<stop offset="1" stop-color="#F17F29"/>
</linearGradient>
</defs>
</svg>
