<svg width="44" height="31" viewBox="0 0 44 31" fill="none" xmlns="http://www.w3.org/2000/svg">
<path d="M18.0501 21.9097C18.0501 26.8164 14.0724 30.7941 9.16565 30.7941C4.25893 30.7941 0.28125 26.8164 0.28125 21.9097C0.28125 19.3227 1.38695 16.994 3.15156 15.3703C4.73385 13.9143 6.84593 13.0253 9.16565 13.0253C14.0724 13.0253 18.0501 17.003 18.0501 21.9097Z" fill="#197BBD"/>
<path d="M43.6911 21.9097C43.6911 26.8164 39.7134 30.7941 34.8067 30.7941C29.8999 30.7941 25.9223 26.8164 25.9223 21.9097C25.9223 21.2829 25.9872 20.6713 26.1106 20.0812C26.9536 16.0517 30.5267 13.0253 34.8067 13.0253C39.7134 13.0253 43.6911 17.003 43.6911 21.9097Z" fill="#197BBD"/>
<path d="M33.7136 11.2885C33.7136 15.7601 30.4102 19.4601 26.1106 20.0812C25.6922 20.1417 25.2644 20.1729 24.8292 20.1729C20.5169 20.1729 16.9221 17.1005 16.1145 13.0253C16.0032 12.4636 15.9448 11.8829 15.9448 11.2885C15.9448 10.508 16.0455 9.75087 16.2345 9.02958C17.2339 5.21691 20.7031 2.40414 24.8292 2.40414C29.7359 2.40414 33.7136 6.38183 33.7136 11.2885Z" fill="#197BBD"/>
<path d="M18.0501 21.9097C18.0501 26.8164 14.0724 30.7941 9.16565 30.7941H34.8067C29.8999 30.7941 25.9223 26.8164 25.9223 21.9097C25.9223 21.2829 25.9872 20.6713 26.1106 20.0812C25.6922 20.1417 25.2644 20.1729 24.8292 20.1729C20.5169 20.1729 16.9221 17.1005 16.1145 13.0253H10.3191H9.16565C14.0724 13.0253 18.0501 17.003 18.0501 21.9097Z" fill="#197BBD"/>
<path d="M16.1145 13.0253C16.0032 12.4636 15.9448 11.8829 15.9448 11.2885C15.9448 10.508 16.0455 9.75087 16.2345 9.02958C15.4921 10.3615 13.2697 13.0253 10.3191 13.0253H16.1145Z" fill="#197BBD"/>
<circle cx="34.9484" cy="8.58405" r="8.01481" transform="rotate(-30 34.9484 8.58405)" fill="#FFC145"/>
<path d="M36.8682 12.223C36.4178 12.483 35.9809 12.6623 35.5574 12.761C35.1302 12.8532 34.6709 12.8525 34.1793 12.7588C34.0548 12.7364 33.944 12.6931 33.8469 12.629C33.7499 12.5649 33.6754 12.4878 33.6234 12.3978C33.5379 12.2498 33.5151 12.0914 33.5549 11.9226C33.5974 11.7436 33.6991 11.6077 33.8599 11.5148C33.9822 11.4442 34.1139 11.4197 34.255 11.4412C34.6146 11.4995 34.9432 11.5114 35.2407 11.4769C35.5446 11.4387 35.8735 11.3174 36.2274 11.1131C36.4655 10.9756 36.6638 10.814 36.8224 10.628C36.9773 10.4357 37.0805 10.2431 37.1322 10.0502C37.1802 9.85096 37.1577 9.67091 37.0648 9.51005C36.9534 9.31703 36.8008 9.18639 36.6069 9.11814C36.4131 9.04989 36.1712 9.03945 35.8811 9.08681C35.5873 9.12775 35.2422 9.22835 34.8457 9.38862C34.4686 9.53774 34.1184 9.63698 33.7951 9.68634C33.4682 9.72926 33.1682 9.7223 32.8952 9.66546C32.6249 9.59848 32.3815 9.4816 32.1651 9.31485C31.9451 9.14166 31.7551 8.91673 31.5954 8.64007C31.3539 8.22185 31.2539 7.80346 31.2954 7.3849C31.3433 6.96263 31.506 6.56842 31.7836 6.20226C32.0612 5.8361 32.422 5.52486 32.8659 5.26854C33.2841 5.02708 33.7073 4.86854 34.1355 4.79291C34.5664 4.70713 34.9502 4.69575 35.2868 4.75875C35.5588 4.79901 35.7506 4.91565 35.862 5.10868C35.9437 5.25023 35.9633 5.41049 35.9208 5.58945C35.8783 5.76842 35.7831 5.90062 35.6351 5.98606C35.5386 6.04178 35.435 6.06297 35.3243 6.04964C35.1694 6.019 34.9828 6.01522 34.7645 6.03831C34.5424 6.05497 34.3201 6.09328 34.0973 6.15325C33.8709 6.20678 33.674 6.28184 33.5067 6.37843C33.23 6.53816 33.0156 6.70914 32.8635 6.89136C32.7177 7.06986 32.6319 7.24809 32.606 7.42606C32.58 7.60403 32.6135 7.77345 32.7064 7.9343C32.8178 8.12732 32.9654 8.2566 33.1491 8.32213C33.3355 8.37752 33.5571 8.38252 33.814 8.33714C34.0672 8.28533 34.3585 8.20294 34.6879 8.08997C35.1148 7.93786 35.5009 7.82648 35.8461 7.75583C36.1978 7.68146 36.5148 7.66577 36.7969 7.70874C37.0754 7.74528 37.3298 7.85151 37.56 8.02742C37.7865 8.19689 37.9945 8.4457 38.184 8.77384C38.4254 9.19206 38.5176 9.61923 38.4606 10.0554C38.4036 10.4915 38.2317 10.8996 37.9449 11.2796C37.6646 11.6559 37.3057 11.9704 36.8682 12.223ZM37.864 12.3429C37.9606 12.5102 37.9825 12.682 37.9299 12.8582C37.8873 13.0372 37.7824 13.175 37.6152 13.2716C37.4543 13.3644 37.2857 13.3845 37.1095 13.3319C36.937 13.2856 36.8024 13.1789 36.7058 13.0116L32.2258 5.25204C32.1293 5.08475 32.1041 4.91484 32.1503 4.74231C32.1993 4.55963 32.3074 4.42 32.4747 4.32341C32.642 4.22683 32.8105 4.20673 32.9803 4.26311C33.1528 4.30934 33.2874 4.4161 33.384 4.58338L37.864 12.3429Z" fill="#404040"/>
</svg>
