<svg width="72" height="80" viewBox="0 0 72 80" fill="none" xmlns="http://www.w3.org/2000/svg">
<path d="M24.853 18.2402L24.8993 18.1572L24.9234 18.0652C26.1688 13.314 30.4929 9.80965 35.6335 9.80965C41.7479 9.80965 46.7046 14.7663 46.7046 20.8807C46.7046 21.6627 46.6236 22.425 46.4698 23.16L46.2504 24.2091L47.3112 24.0559C47.8325 23.9806 48.3659 23.9415 48.9089 23.9415C55.0233 23.9415 59.98 28.8982 59.98 35.0126C59.98 41.127 55.0233 46.0836 48.9089 46.0836H14.7925C8.67812 46.0836 3.72144 41.127 3.72144 35.0126C3.72144 31.7889 5.09831 28.8878 7.29833 26.8635C9.27065 25.0487 11.9014 23.9415 14.7925 23.9415H16.3272C18.5216 23.9415 20.4052 22.9519 21.8393 21.7783C23.273 20.6051 24.3179 19.2003 24.853 18.2402Z" stroke="#197BBD" stroke-width="1.5"/>
<path d="M40.7255 61.8886V52.3981" stroke="#197BBD" stroke-width="1.5" stroke-linecap="round" stroke-linejoin="round"/>
<path d="M35.9813 57.1434L40.7266 52.3981L45.4718 57.1434" stroke="#197BBD" stroke-width="1.5" stroke-linecap="round" stroke-linejoin="round"/>
<path d="M23.7793 44.2643L28.5245 39.519L33.2698 44.2643" stroke="#197BBD" stroke-width="0.683017" stroke-linecap="round" stroke-linejoin="round"/>
<g clip-path="url(#clip0_1_152)">
<path d="M25.6329 59.9357L17.0048 68.5638C16.4753 69.0932 16.4753 69.9517 17.0048 70.4811L22.7568 76.2332C23.2863 76.7627 24.1447 76.7627 24.6742 76.2332L33.3023 67.6051C33.8318 67.0756 33.8318 66.2172 33.3023 65.6877L27.5503 59.9357C27.0208 59.4062 26.1624 59.4062 25.6329 59.9357Z" stroke="#197BBD" stroke-width="1.5" stroke-linecap="round" stroke-linejoin="round"/>
<path d="M18.9224 72.3981L29.4679 61.8526" stroke="#197BBD" stroke-width="1.5" stroke-linecap="round" stroke-linejoin="round"/>
</g>
<circle cx="17.8462" cy="17.4089" r="11.7215" transform="rotate(-30 17.8462 17.4089)" stroke="#197BBD" stroke-width="1.5"/>
<path d="M20.0444 20.7694C19.4249 21.138 18.8259 21.3524 18.2474 21.4127C17.6689 21.4729 17.0517 21.4186 16.3957 21.2497C16.3356 21.2406 16.275 21.2209 16.2137 21.1906C16.1606 21.1555 16.1151 21.1051 16.0771 21.0394C16.0202 20.9409 16.005 20.8292 16.0315 20.7044C16.0662 20.5748 16.1329 20.4816 16.2314 20.4247C16.33 20.3678 16.4441 20.3567 16.5736 20.3914C17.0931 20.5514 17.6062 20.6056 18.113 20.5539C18.628 20.4975 19.1196 20.3342 19.5878 20.0639C19.982 19.8362 20.2956 19.5731 20.5283 19.2744C20.7693 18.971 20.9138 18.6522 20.9617 18.3179C21.0096 17.9836 20.9458 17.6645 20.7704 17.3606C20.5522 16.9828 20.2741 16.7381 19.936 16.6267C19.5931 16.5071 19.2106 16.4705 18.7885 16.5171C18.3617 16.5555 17.9074 16.6316 17.4255 16.7455C17.0319 16.8414 16.6475 16.9154 16.2725 16.9677C15.8927 17.0117 15.5316 17.0122 15.1891 16.969C14.8418 16.9176 14.5242 16.7943 14.2363 16.5991C13.9484 16.404 13.693 16.1134 13.4701 15.7273C13.2188 15.292 13.1109 14.8396 13.1465 14.3701C13.182 13.9005 13.3547 13.4504 13.6645 13.0196C13.9778 12.5759 14.4137 12.1928 14.9723 11.8704C15.4569 11.5906 15.9683 11.4048 16.5067 11.313C17.0533 11.2164 17.5505 11.2525 17.9983 11.421C18.1973 11.4813 18.3277 11.5649 18.3893 11.6716C18.4368 11.7538 18.4431 11.8596 18.4084 11.9892C18.3737 12.1187 18.3071 12.212 18.2085 12.2689C18.1264 12.3163 18.0399 12.3278 17.9493 12.3035C17.71 12.2117 17.4457 12.1617 17.1563 12.1536C16.8621 12.1372 16.5623 12.168 16.2568 12.2458C15.9595 12.3189 15.6712 12.436 15.3919 12.5973C15.0059 12.8201 14.6924 13.0833 14.4514 13.3867C14.2139 13.6771 14.0688 13.9854 14.0162 14.3115C13.9717 14.6328 14.0396 14.9496 14.2198 15.2617C14.4189 15.6066 14.6811 15.8331 15.0063 15.9411C15.3314 16.049 15.6969 16.0844 16.1025 16.0473C16.5035 16.002 16.9202 15.9367 17.3527 15.8512C17.7628 15.7459 18.166 15.6664 18.5622 15.6129C18.9618 15.5464 19.3394 15.5365 19.6949 15.5832C20.0586 15.6251 20.3932 15.7494 20.6988 15.9563C21.0126 16.1584 21.2952 16.4771 21.5465 16.9124C21.7884 17.3313 21.8874 17.7779 21.8437 18.2522C21.7999 18.7265 21.6255 19.1831 21.3204 19.6221C21.0235 20.0563 20.5982 20.4387 20.0444 20.7694ZM21.2159 21.9165C21.2728 22.015 21.2857 22.1226 21.2544 22.2392C21.2314 22.3511 21.1665 22.4378 21.0597 22.4995C20.9529 22.5611 20.8412 22.5763 20.7246 22.5451C20.6162 22.5091 20.5336 22.4418 20.4767 22.3432L14.0322 11.1811C13.9706 11.0743 13.9536 10.9691 13.9814 10.8654C14.0126 10.7488 14.0858 10.6573 14.2007 10.591C14.3075 10.5293 14.4151 10.5165 14.5235 10.5525C14.6271 10.5802 14.7098 10.6475 14.7714 10.7543L21.2159 21.9165Z" fill="#197BBD"/>
<path d="M2.97144 35.0113C2.97144 41.5399 8.2639 46.8324 14.7925 46.8324H48.9089C55.4375 46.8324 60.73 41.5399 60.73 35.0113C60.73 28.4827 55.4375 23.1903 48.9089 23.1903C48.3299 23.1903 47.7607 23.2319 47.2039 23.3123C47.3682 22.5272 47.4546 21.7134 47.4546 20.8794C47.4546 14.3508 42.1621 9.05838 35.6335 9.05838C30.1435 9.05838 25.5276 12.8009 24.1979 17.8738C23.2101 19.6459 20.2531 23.1903 16.3272 23.1903H14.7925C11.706 23.1903 8.8958 24.3732 6.79049 26.3103C4.44262 28.4707 2.97144 31.5692 2.97144 35.0113Z" fill="white"/>
<path d="M24.853 18.239L24.8993 18.1559L24.9234 18.064C26.1688 13.3127 30.4929 9.80838 35.6335 9.80838C41.7479 9.80838 46.7046 14.7651 46.7046 20.8794C46.7046 21.6615 46.6236 22.4238 46.4698 23.1587L46.2504 24.2078L47.3112 24.0546C47.8325 23.9793 48.3659 23.9403 48.9089 23.9403C55.0233 23.9403 59.98 28.8969 59.98 35.0113C59.98 41.1257 55.0233 46.0824 48.9089 46.0824H14.7925C8.67812 46.0824 3.72144 41.1257 3.72144 35.0113C3.72144 31.7876 5.09831 28.8866 7.29833 26.8622C9.27065 25.0474 11.9014 23.9403 14.7925 23.9403H16.3272C18.5216 23.9403 20.4052 22.9506 21.8393 21.777C23.273 20.6038 24.3179 19.1991 24.853 18.239Z" stroke="#197BBD" stroke-width="1.5"/>
<path d="M69.0373 14.0252C68.8861 15.6606 68.2724 17.2191 67.2678 18.5184C66.2633 19.8177 64.9095 20.804 63.3648 21.3619C61.8201 21.9199 60.1485 22.0264 58.5456 21.6689C56.9426 21.3115 55.4746 20.505 54.3132 19.3436C53.1519 18.1823 52.3454 16.7143 51.988 15.1113C51.6305 13.5084 51.737 11.8367 52.295 10.2921C52.8529 8.74743 53.8392 7.39361 55.1385 6.38905C56.4378 5.38449 57.9963 4.77074 59.6317 4.61961C58.6742 5.91494 58.2135 7.5109 58.3333 9.11722C58.453 10.7235 59.1454 12.2335 60.2844 13.3725C61.4234 14.5115 62.9334 15.2038 64.5397 15.3236C66.146 15.4434 67.7419 14.9827 69.0373 14.0252V14.0252Z" stroke="#197BBD" stroke-width="1.5" stroke-linecap="round" stroke-linejoin="round"/>
<rect x="20.3898" y="38.1722" width="16.2694" height="13.4883" fill="white"/>
<path d="M28.5246 49.0082V39.5177" stroke="#197BBD" stroke-width="1.5" stroke-linecap="round" stroke-linejoin="round"/>
<path d="M28.5246 47.6627V38.1722" stroke="#197BBD" stroke-width="1.5" stroke-linecap="round" stroke-linejoin="round"/>
<path d="M23.7791 42.9174L28.5243 38.1722L33.2696 42.9174" stroke="#197BBD" stroke-width="1.5" stroke-linecap="round" stroke-linejoin="round"/>
<defs>
<clipPath id="clip0_1_152">
<rect width="16.2694" height="16.2694" fill="white" transform="translate(13.6501 68.0842) rotate(-45)"/>
</clipPath>
</defs>
</svg>
