<svg width="25" height="25" viewBox="0 0 25 25" fill="none" xmlns="http://www.w3.org/2000/svg">
<g clip-path="url(#clip0_1_262)">
<g filter="url(#filter0_ddd_1_262)">
<rect x="-8.22662" y="-10.3474" width="42.1416" height="43.4414" rx="3" fill="#E4F0FF"/>
</g>
<path d="M13.0697 10.9228L7.56066 16.4328L5.69066 15.6558L5.52366 15.8248L7.90366 17.4118L9.49166 19.7918L9.65966 19.6238L8.88366 17.7538L14.3927 12.2458L18.7207 18.4978L18.9307 18.2898L16.0437 10.5938L20.4437 6.19576C20.6098 6.01845 20.7004 5.78351 20.6965 5.54058C20.6925 5.29766 20.5942 5.06579 20.4224 4.89399C20.2506 4.72219 20.0188 4.62393 19.7758 4.61997C19.5329 4.61601 19.298 4.70666 19.1207 4.87276L14.7207 9.27176L7.02666 6.38576L6.81666 6.59476L13.0697 10.9228V10.9228ZM18.4597 21.4058L14.1297 15.1528L11.0897 18.1928L11.8667 20.0628L9.20066 22.7278L6.55566 18.7608L2.58766 16.1148L5.25366 13.4488L7.12266 14.2248L10.1627 11.1848L3.90966 6.85676L6.55566 4.21176L14.2507 7.09676L17.7977 3.54976C18.0571 3.28409 18.3666 3.07254 18.7084 2.92738C19.0501 2.78221 19.4173 2.70632 19.7886 2.70411C20.1599 2.70189 20.528 2.77338 20.8714 2.91445C21.2149 3.05552 21.527 3.26336 21.7895 3.52591C22.0521 3.78847 22.2599 4.10053 22.401 4.44399C22.542 4.78746 22.6135 5.15552 22.6113 5.52682C22.6091 5.89812 22.5332 6.26529 22.388 6.60705C22.2429 6.94881 22.0313 7.25836 21.7657 7.51776L18.2187 11.0648L21.1047 18.7608L18.4587 21.4058H18.4597Z" fill="#70A6E8"/>
</g>
<defs>
<filter id="filter0_ddd_1_262" x="-32.2266" y="-18.3474" width="90.1416" height="91.4414" filterUnits="userSpaceOnUse" color-interpolation-filters="sRGB">
<feFlood flood-opacity="0" result="BackgroundImageFix"/>
<feColorMatrix in="SourceAlpha" type="matrix" values="0 0 0 0 0 0 0 0 0 0 0 0 0 0 0 0 0 0 127 0" result="hardAlpha"/>
<feOffset/>
<feGaussianBlur stdDeviation="0.5"/>
<feColorMatrix type="matrix" values="0 0 0 0 0 0 0 0 0 0 0 0 0 0 0 0 0 0 0.04 0"/>
<feBlend mode="normal" in2="BackgroundImageFix" result="effect1_dropShadow_1_262"/>
<feColorMatrix in="SourceAlpha" type="matrix" values="0 0 0 0 0 0 0 0 0 0 0 0 0 0 0 0 0 0 127 0" result="hardAlpha"/>
<feOffset dy="2"/>
<feGaussianBlur stdDeviation="3"/>
<feColorMatrix type="matrix" values="0 0 0 0 0 0 0 0 0 0 0 0 0 0 0 0 0 0 0.04 0"/>
<feBlend mode="normal" in2="effect1_dropShadow_1_262" result="effect2_dropShadow_1_262"/>
<feColorMatrix in="SourceAlpha" type="matrix" values="0 0 0 0 0 0 0 0 0 0 0 0 0 0 0 0 0 0 127 0" result="hardAlpha"/>
<feOffset dy="16"/>
<feGaussianBlur stdDeviation="12"/>
<feColorMatrix type="matrix" values="0 0 0 0 0 0 0 0 0 0 0 0 0 0 0 0 0 0 0.06 0"/>
<feBlend mode="normal" in2="effect2_dropShadow_1_262" result="effect3_dropShadow_1_262"/>
<feBlend mode="normal" in="SourceGraphic" in2="effect3_dropShadow_1_262" result="shape"/>
</filter>
<clipPath id="clip0_1_262">
<rect width="24" height="24" fill="white" transform="translate(0.844666 0.328766)"/>
</clipPath>
</defs>
</svg>
