<svg width="36" height="36" viewBox="0 0 36 36" fill="none" xmlns="http://www.w3.org/2000/svg">
<path d="M28.9669 23.5907L24.0479 18.6632V15.0098C24.0485 14.8987 24.0272 14.7887 23.9852 14.6859C23.9432 14.5831 23.8814 14.4896 23.8032 14.4107L15.3657 5.97321C15.2872 5.89413 15.1939 5.83136 15.0911 5.78852C14.9883 5.74569 14.878 5.72363 14.7666 5.72363C14.6552 5.72363 14.5449 5.74569 14.4421 5.78852C14.3393 5.83136 14.246 5.89413 14.1675 5.97321L6.5738 13.567C6.49472 13.6454 6.43195 13.7387 6.38911 13.8415C6.34627 13.9444 6.32422 14.0546 6.32422 14.166C6.32422 14.2774 6.34627 14.3877 6.38911 14.4905C6.43195 14.5933 6.49472 14.6867 6.5738 14.7651L15.0113 23.2026C15.0901 23.2808 15.1836 23.3427 15.2864 23.3846C15.3892 23.4266 15.4993 23.4479 15.6104 23.4473H19.2722L24.1913 28.3748C24.8246 29.0081 25.6835 29.3638 26.5791 29.3638C27.4747 29.3638 28.3336 29.0081 28.9669 28.3748C29.6002 27.7415 29.956 26.8826 29.956 25.987C29.956 25.0914 29.6002 24.2324 28.9669 23.5991V23.5907ZM9.70411 12.8245L11.6363 14.7651L12.8344 13.567L10.8938 11.6348L12.2354 10.2932L15.855 13.9213L17.0532 12.7232L13.425 9.10353L14.7666 7.76196L20.3269 13.3223L13.9229 19.7263L8.36255 14.166L9.70411 12.8245ZM27.7688 27.1682C27.4526 27.4825 27.0249 27.6589 26.5791 27.6589C26.1333 27.6589 25.7056 27.4825 25.3894 27.1682L20.2172 22.0045C20.0374 21.8808 19.8331 21.7974 19.6182 21.7598H15.9563L15.1125 20.916L21.5166 14.512L22.3604 15.3557V19.0176C22.3613 19.2389 22.4492 19.4511 22.605 19.6082L27.7688 24.7888C28.0831 25.105 28.2595 25.5327 28.2595 25.9785C28.2595 26.4243 28.0831 26.852 27.7688 27.1682Z" fill="url(#paint0_linear_1_273)"/>
<path d="M27.7688 27.1682C27.4526 27.4825 27.0249 27.6589 26.5791 27.6589C26.1333 27.6589 25.7056 27.4825 25.3894 27.1682L20.2172 22.0045C20.0374 21.8808 19.8331 21.7974 19.6182 21.7598H15.9563L15.1125 20.916L21.5166 14.512L22.3604 15.3557V19.0176C22.3613 19.2389 22.4492 19.4511 22.605 19.6082L27.7688 24.7888C28.0831 25.105 28.2595 25.5327 28.2595 25.9785C28.2595 26.4243 28.0831 26.852 27.7688 27.1682Z" fill="url(#paint1_linear_1_273)"/>
<defs>
<linearGradient id="paint0_linear_1_273" x1="18.1401" y1="5.72363" x2="18.1401" y2="29.3638" gradientUnits="userSpaceOnUse">
<stop stop-color="#FFA764"/>
<stop offset="1" stop-color="#F17F29"/>
</linearGradient>
<linearGradient id="paint1_linear_1_273" x1="18.1401" y1="5.72363" x2="18.1401" y2="29.3638" gradientUnits="userSpaceOnUse">
<stop stop-color="#FFA764"/>
<stop offset="1" stop-color="#F17F29"/>
</linearGradient>
</defs>
</svg>
