<svg width="36" height="36" viewBox="0 0 36 36" fill="none" xmlns="http://www.w3.org/2000/svg">
<path d="M31.9614 17.0549C30.6275 11.0245 28.6201 7.80584 25.6423 6.92665C25.0164 6.74304 24.3671 6.65132 23.7148 6.65434C22.8525 6.65434 22.1017 6.86439 21.3074 7.08702C20.3502 7.35555 19.2628 7.66056 17.6774 7.66056C16.092 7.66056 15.004 7.35618 14.0449 7.08764C13.25 6.86439 12.4997 6.65434 11.64 6.65434C10.9655 6.652 10.2939 6.74344 9.64458 6.92602C6.6825 7.80144 4.67634 11.0188 3.32296 17.0512C1.86771 23.5426 2.58402 27.6411 5.33164 28.5919C5.70827 28.7247 6.10455 28.7932 6.5039 28.7944C8.38617 28.7944 9.8955 27.2266 10.9269 25.9431C12.0922 24.4903 13.4563 23.7533 17.6774 23.7533C21.4476 23.7533 23.0079 24.2645 24.3556 25.9431C25.2027 26.9983 26.0033 27.7367 26.802 28.2014C27.8642 28.819 28.9257 28.9561 29.9565 28.602C31.5803 28.048 32.5111 26.5833 32.7236 24.2476C32.8852 22.4565 32.6362 20.1038 31.9614 17.0549ZM14.6587 16.7166H12.6463V18.729C12.6463 18.9959 12.5403 19.2519 12.3516 19.4406C12.1629 19.6293 11.9069 19.7353 11.64 19.7353C11.3732 19.7353 11.1172 19.6293 10.9285 19.4406C10.7398 19.2519 10.6338 18.9959 10.6338 18.729V16.7166H8.62137C8.3545 16.7166 8.09857 16.6106 7.90986 16.4219C7.72116 16.2332 7.61515 15.9772 7.61515 15.7104C7.61515 15.4435 7.72116 15.1876 7.90986 14.9989C8.09857 14.8102 8.3545 14.7041 8.62137 14.7041H10.6338V12.6917C10.6338 12.4248 10.7398 12.1689 10.9285 11.9802C11.1172 11.7915 11.3732 11.6855 11.64 11.6855C11.9069 11.6855 12.1629 11.7915 12.3516 11.9802C12.5403 12.1689 12.6463 12.4248 12.6463 12.6917V14.7041H14.6587C14.9256 14.7041 15.1815 14.8102 15.3702 14.9989C15.5589 15.1876 15.665 15.4435 15.665 15.7104C15.665 15.9772 15.5589 16.2332 15.3702 16.4219C15.1815 16.6106 14.9256 16.7166 14.6587 16.7166ZM19.9414 16.9682C19.6926 16.9682 19.4495 16.8944 19.2426 16.7562C19.0358 16.618 18.8746 16.4215 18.7794 16.1917C18.6842 15.9619 18.6593 15.709 18.7078 15.465C18.7563 15.221 18.8761 14.9969 19.052 14.821C19.2279 14.6451 19.452 14.5253 19.696 14.4768C19.94 14.4282 20.1929 14.4531 20.4227 14.5483C20.6526 14.6435 20.849 14.8047 20.9872 15.0116C21.1254 15.2184 21.1992 15.4616 21.1992 15.7104C21.1992 16.044 21.0667 16.3639 20.8308 16.5998C20.5949 16.8356 20.275 16.9682 19.9414 16.9682ZM22.7085 19.7353C22.4596 19.7353 22.2163 19.6614 22.0094 19.5231C21.8025 19.3847 21.6413 19.1881 21.5462 18.9581C21.4511 18.7281 21.4264 18.475 21.4752 18.2309C21.5239 17.9869 21.644 17.7628 21.8203 17.587C21.9965 17.4112 22.2209 17.2917 22.4651 17.2435C22.7093 17.1953 22.9623 17.2207 23.192 17.3164C23.4218 17.412 23.618 17.5737 23.7559 17.781C23.8937 17.9882 23.9669 18.2317 23.9663 18.4806C23.9655 18.8137 23.8326 19.1328 23.5968 19.368C23.361 19.6032 23.0416 19.7353 22.7085 19.7353ZM22.7085 14.201C22.4598 14.201 22.2166 14.1273 22.0097 13.9891C21.8029 13.8508 21.6417 13.6544 21.5465 13.4246C21.4513 13.1948 21.4264 12.9419 21.4749 12.6979C21.5234 12.4539 21.6432 12.2298 21.8191 12.0539C21.995 11.878 22.2192 11.7582 22.4632 11.7096C22.7071 11.6611 22.96 11.686 23.1899 11.7812C23.4197 11.8764 23.6161 12.0376 23.7543 12.2445C23.8925 12.4513 23.9663 12.6945 23.9663 12.9432C23.9663 13.2768 23.8338 13.5968 23.5979 13.8326C23.362 14.0685 23.0421 14.201 22.7085 14.201ZM25.4757 16.9682C25.2269 16.9682 24.9837 16.8944 24.7769 16.7562C24.57 16.618 24.4088 16.4215 24.3136 16.1917C24.2184 15.9619 24.1935 15.709 24.242 15.465C24.2906 15.221 24.4104 14.9969 24.5863 14.821C24.7622 14.6451 24.9863 14.5253 25.2303 14.4768C25.4743 14.4282 25.7272 14.4531 25.957 14.5483C26.1868 14.6435 26.3833 14.8047 26.5215 15.0116C26.6597 15.2184 26.7334 15.4616 26.7334 15.7104C26.7334 16.044 26.6009 16.3639 26.365 16.5998C26.1292 16.8356 25.8092 16.9682 25.4757 16.9682Z" fill="url(#paint0_linear_1_279)"/>
<defs>
<linearGradient id="paint0_linear_1_279" x1="17.6787" y1="6.65427" x2="17.6787" y2="28.7944" gradientUnits="userSpaceOnUse">
<stop stop-color="#22B04A"/>
<stop offset="1" stop-color="#1E9540"/>
</linearGradient>
</defs>
</svg>
