<svg width="13" height="13" viewBox="0 0 13 13" fill="none" xmlns="http://www.w3.org/2000/svg">
<path d="M4.8602 11.5649C5.13635 11.5649 5.36022 11.341 5.36022 11.0649C5.36022 10.7887 5.13635 10.5648 4.8602 10.5648C4.58404 10.5648 4.36017 10.7887 4.36017 11.0649C4.36017 11.341 4.58404 11.5649 4.8602 11.5649Z" stroke="#404040" stroke-width="0.996054" stroke-linecap="round" stroke-linejoin="round"/>
<path d="M10.3601 11.5649C10.6363 11.5649 10.8601 11.341 10.8601 11.0649C10.8601 10.7887 10.6363 10.5648 10.3601 10.5648C10.0839 10.5648 9.86008 10.7887 9.86008 11.0649C9.86008 11.341 10.0839 11.5649 10.3601 11.5649Z" stroke="#404040" stroke-width="0.996054" stroke-linecap="round" stroke-linejoin="round"/>
<path d="M0.859375 1.06396H2.85948L4.19956 7.75933C4.24528 7.98954 4.37052 8.19633 4.55335 8.34351C4.73618 8.49068 4.96495 8.56887 5.19961 8.56437H10.0599C10.2945 8.56887 10.5233 8.49068 10.7061 8.34351C10.889 8.19633 11.0142 7.98954 11.0599 7.75933L11.86 3.5641H3.35951" stroke="#404040" stroke-width="0.996054" stroke-linecap="round" stroke-linejoin="round"/>
</svg>
